<?xml version="1.0" standalone="no"?>
<!DOCTYPE svg PUBLIC "-//W3C//DTD SVG 20010904//EN"
 "http://www.w3.org/TR/2001/REC-SVG-20010904/DTD/svg10.dtd">
<svg version="1.0" xmlns="http://www.w3.org/2000/svg"
 width="928.000000pt" height="1104.000000pt" viewBox="0 0 928.000000 1104.000000"
 preserveAspectRatio="xMidYMid meet">

<g transform="translate(0.000000,1104.000000) scale(0.100000,-0.100000)"
fill="#000000" stroke="none">
<path d="M7543 10862 c-16 -10 -33 -57 -33 -92 0 -27 1 -28 31 -20 50 15 70
39 67 79 -3 30 -7 36 -28 39 -14 1 -30 -1 -37 -6z"/>
<path d="M7442 10710 c-37 -17 -46 -28 -76 -92 -18 -40 -43 -82 -56 -93 -12
-11 -38 -45 -57 -75 -19 -30 -48 -66 -64 -78 -16 -13 -37 -38 -45 -55 -9 -18
-35 -57 -57 -86 -22 -30 -53 -81 -69 -113 -18 -39 -41 -67 -67 -86 -24 -16
-52 -50 -71 -84 -17 -32 -50 -73 -74 -93 -32 -26 -49 -51 -65 -95 -16 -44 -33
-69 -63 -92 -22 -19 -53 -58 -69 -90 -16 -31 -41 -65 -55 -75 -47 -32 -70 -61
-85 -105 -7 -24 -34 -65 -59 -92 -25 -26 -56 -71 -70 -100 -16 -32 -39 -60
-63 -76 -21 -14 -49 -46 -64 -70 -14 -25 -43 -63 -64 -85 -21 -22 -51 -69 -67
-105 -16 -36 -45 -79 -66 -98 -19 -18 -45 -50 -56 -71 -11 -22 -40 -56 -64
-76 -34 -27 -51 -52 -66 -93 -14 -38 -34 -69 -60 -92 -26 -23 -48 -56 -63 -95
-18 -46 -34 -68 -68 -93 -28 -22 -55 -55 -73 -91 -15 -31 -43 -72 -62 -91 -19
-20 -45 -64 -58 -98 -14 -35 -37 -73 -52 -84 -14 -12 -41 -45 -59 -73 -19 -28
-53 -72 -77 -96 -29 -30 -50 -64 -61 -99 -11 -33 -33 -71 -60 -99 -24 -25 -53
-64 -66 -86 -12 -22 -40 -52 -60 -66 -30 -21 -43 -41 -61 -93 -13 -36 -37 -82
-54 -103 -41 -50 -44 -80 -10 -110 15 -13 33 -23 41 -23 8 0 12 -4 8 -9 -3 -6
4 -15 16 -21 12 -7 19 -8 16 -3 -3 5 0 21 8 36 8 15 10 27 5 27 -15 0 -28 63
-18 83 11 21 54 22 66 1 10 -18 -7 -95 -23 -106 -6 -5 -5 -8 4 -8 9 0 11 -6 6
-17 -4 -10 -7 -26 -7 -35 0 -10 -5 -18 -12 -18 -7 0 -12 -14 -12 -35 0 -19 4
-35 9 -35 9 0 3 -107 -10 -200 -10 -65 -5 -172 7 -165 5 3 11 1 15 -5 3 -5 1
-10 -6 -10 -7 0 2 -12 19 -26 22 -19 32 -36 32 -55 0 -26 -3 -28 -57 -34 -99
-10 -178 -38 -156 -54 4 -3 17 -24 28 -46 18 -36 24 -40 61 -43 22 -2 74 4
115 13 41 9 92 18 114 21 22 3 70 19 108 35 50 22 92 32 165 39 115 10 126 13
174 56 42 37 180 85 269 92 50 4 58 2 73 -19 19 -28 20 -85 2 -117 -7 -13 -34
-40 -61 -60 -34 -27 -53 -51 -67 -87 -11 -27 -36 -68 -57 -90 -21 -22 -46 -65
-57 -94 -17 -49 -34 -69 -96 -112 -13 -9 -33 -43 -46 -76 -12 -33 -37 -77 -56
-99 -18 -21 -45 -64 -60 -96 -15 -32 -42 -67 -61 -83 -20 -14 -46 -48 -60 -74
-13 -27 -39 -61 -57 -76 -45 -37 -57 -62 -58 -114 0 -24 -10 -63 -21 -86 -21
-42 -21 -44 -4 -96 14 -42 31 -67 80 -114 35 -33 70 -74 79 -91 8 -18 34 -49
57 -70 22 -22 53 -64 69 -94 15 -30 40 -65 54 -77 14 -12 37 -44 50 -72 15
-28 39 -58 59 -70 21 -13 46 -44 67 -82 17 -33 44 -75 59 -92 15 -18 42 -59
60 -93 22 -41 47 -71 77 -93 29 -20 51 -46 63 -74 11 -26 39 -60 70 -86 28
-24 54 -55 57 -69 11 -44 40 -95 69 -122 15 -14 43 -49 62 -78 19 -30 50 -63
69 -74 19 -11 46 -41 61 -67 14 -25 41 -62 59 -81 19 -19 46 -61 61 -93 16
-32 54 -85 86 -120 136 -147 176 -194 195 -232 11 -22 30 -49 42 -60 12 -11
38 -42 58 -70 19 -27 54 -70 77 -95 23 -25 58 -72 78 -105 19 -33 47 -71 62
-85 15 -14 38 -46 51 -72 13 -26 44 -64 69 -85 42 -34 145 -165 174 -220 19
-38 14 -87 -14 -113 -22 -21 -30 -22 -92 -16 -37 4 -295 8 -573 9 -450 2 -508
4 -535 19 -54 29 -174 158 -205 219 -21 40 -43 67 -74 88 -27 19 -56 52 -75
85 -18 33 -43 62 -61 71 -20 10 -41 36 -61 77 -17 34 -41 70 -53 79 -40 32
-62 54 -96 99 -19 25 -45 53 -57 63 -12 10 -38 43 -57 75 -19 31 -47 68 -62
82 -15 14 -42 49 -61 78 -18 29 -52 64 -74 79 -22 14 -52 46 -66 70 -25 43
-93 93 -127 93 -13 0 -17 8 -15 38 3 61 0 72 -26 97 -35 36 -61 32 -75 -10
-27 -83 -13 -127 39 -119 20 3 30 0 34 -11 4 -8 2 -15 -4 -15 -6 0 -7 -9 -3
-22 10 -31 6 -118 -6 -133 -6 -7 -13 -37 -16 -66 -3 -30 -7 -69 -10 -87 -5
-36 -50 -83 -70 -75 -22 8 -16 -22 9 -54 38 -47 55 -78 67 -124 14 -51 43 -95
68 -103 10 -4 29 -25 43 -48 13 -22 45 -64 70 -92 26 -28 50 -62 54 -76 16
-54 55 -116 89 -143 19 -15 47 -46 60 -70 14 -23 41 -52 60 -65 25 -17 41 -41
61 -90 15 -37 42 -83 60 -102 19 -19 46 -61 60 -93 18 -42 34 -63 58 -75 39
-21 97 -79 97 -97 0 -26 98 -133 132 -144 23 -8 436 -12 1349 -13 1441 -3
1353 -6 1347 56 -2 24 -16 39 -68 76 -48 34 -73 61 -97 104 -18 32 -44 72 -58
88 -14 17 -35 48 -45 69 -11 21 -41 55 -66 76 -25 21 -56 58 -69 83 -13 25
-44 65 -70 90 -26 25 -57 65 -70 90 -13 25 -41 65 -63 90 -21 25 -49 64 -60
87 -12 23 -44 60 -71 83 -27 23 -62 60 -77 83 -14 22 -39 51 -54 63 -15 13
-44 55 -64 94 -21 39 -48 77 -60 85 -13 9 -40 41 -62 73 -53 78 -170 221 -200
245 -14 10 -36 41 -49 68 -14 26 -42 65 -64 86 -21 21 -55 63 -74 93 -19 30
-49 69 -67 85 -17 17 -45 56 -61 88 -19 36 -44 68 -69 85 -21 15 -48 45 -61
67 -12 22 -43 63 -70 90 -26 28 -58 72 -69 98 -12 26 -40 69 -63 96 -23 26
-50 62 -59 79 -9 17 -34 40 -55 50 -40 21 -75 61 -88 101 -4 12 -29 47 -56 77
-26 29 -57 71 -69 93 -11 22 -38 55 -60 73 -23 18 -54 58 -70 89 -16 32 -47
71 -70 89 -23 18 -52 49 -65 69 -13 20 -40 54 -60 76 -20 22 -47 60 -60 85
-13 25 -46 64 -74 88 -57 48 -71 88 -51 146 8 26 24 43 56 62 36 21 51 39 75
90 17 35 43 73 59 84 19 13 37 43 54 88 22 57 34 74 72 100 30 21 52 48 65 77
11 26 40 62 69 86 37 31 53 54 66 92 11 32 35 70 64 102 26 27 57 69 69 92 11
23 39 57 62 75 23 18 52 54 64 79 13 25 40 65 61 90 20 24 48 68 61 98 22 48
75 110 95 111 4 0 21 27 37 59 20 39 42 66 66 81 35 22 66 70 79 123 4 16 28
50 54 77 29 30 54 68 65 99 14 39 28 57 63 82 33 22 53 47 70 83 14 31 41 66
69 89 24 21 48 50 51 65 13 51 34 82 72 101 50 25 63 42 64 81 1 39 -14 50
-69 50 -30 0 -50 -7 -72 -26 -45 -38 -171 -82 -283 -99 -109 -16 -149 -30
-194 -68 -40 -34 -69 -45 -157 -58 -99 -14 -122 -23 -182 -69 -45 -34 -65 -42
-156 -60 -57 -11 -136 -34 -176 -50 -39 -16 -91 -33 -115 -36 -24 -4 -65 -16
-93 -27 -29 -11 -76 -20 -113 -21 -57 -1 -66 2 -84 24 -16 20 -19 34 -15 72 8
63 29 102 72 128 42 26 47 34 85 145 16 48 41 103 56 122 15 20 37 70 49 112
34 115 49 146 89 176 30 23 40 41 61 109 18 58 37 96 67 133 30 36 50 75 66
127 13 41 37 92 52 113 27 35 47 87 79 198 13 47 23 61 72 97 30 23 39 39 59
108 13 45 37 102 53 127 17 25 43 88 59 141 23 78 36 103 71 141 29 31 47 62
56 96 26 101 33 115 73 152 52 50 57 59 73 153 15 85 24 107 78 187 19 28 40
75 47 103 8 34 24 63 45 84 45 46 60 71 84 145 12 35 33 85 48 110 15 25 35
71 45 101 32 106 73 192 115 241 23 28 47 67 52 87 14 55 17 115 6 118 -5 2
-29 -5 -53 -16z m-2285 -3428 c9 -15 7 -21 -8 -30 -16 -10 -21 -10 -25 3 -7
17 1 45 13 45 5 0 13 -8 20 -18z m-70 -4063 c17 -17 4 -39 -23 -39 -26 0 -31
13 -11 35 15 18 20 18 34 4z m-47 -183 c8 -21 6 -30 -10 -46 -11 -11 -31 -20
-45 -20 -36 0 -46 28 -27 72 25 57 59 54 82 -6z"/>
<path d="M2110 8854 c-80 -2 -228 -8 -330 -13 -102 -6 -252 -13 -335 -17 -82
-3 -152 -7 -155 -9 -3 -1 -61 -6 -130 -10 -164 -9 -204 -16 -208 -37 -2 -12
13 -19 70 -32 40 -9 93 -18 117 -21 25 -3 58 -12 74 -20 17 -8 41 -15 55 -15
19 0 23 -4 19 -19 -3 -13 0 -18 8 -15 7 3 16 1 20 -5 4 -7 -3 -11 -17 -11 -17
0 -27 -8 -35 -27 -11 -27 -11 -27 -12 -4 -1 18 -4 21 -14 12 -8 -6 -16 -8 -19
-5 -3 2 -8 -2 -12 -11 -3 -9 -2 -14 3 -11 5 3 15 -2 22 -11 12 -15 12 -16 -3
-11 -28 11 -46 -14 -53 -73 -7 -74 3 -82 98 -81 40 1 106 -5 147 -12 41 -8
170 -17 285 -21 116 -4 221 -9 235 -10 14 -2 124 -7 245 -11 l220 -7 85 -44
c94 -49 176 -128 229 -219 16 -29 46 -62 66 -74 19 -12 47 -43 62 -68 15 -26
46 -68 69 -94 24 -25 57 -75 74 -111 21 -46 42 -73 71 -93 22 -15 51 -46 64
-69 14 -22 38 -54 56 -70 17 -17 42 -51 55 -78 23 -45 71 -104 168 -207 52
-56 87 -103 114 -155 11 -22 32 -51 47 -65 15 -14 36 -42 46 -62 54 -105 102
-102 180 12 13 19 30 41 37 49 8 8 23 34 33 58 10 24 42 65 70 91 53 48 88
108 89 151 0 45 -49 134 -90 163 -21 15 -57 53 -79 85 -98 139 -152 208 -245
310 -57 62 -109 129 -122 158 -13 28 -42 68 -64 90 -23 22 -52 58 -65 81 -13
22 -42 53 -65 68 -31 20 -49 43 -70 89 -15 34 -44 77 -63 96 -20 19 -46 58
-58 88 -17 43 -31 59 -66 80 -30 17 -54 42 -74 79 -17 29 -60 79 -96 111 l-67
58 -270 1 c-149 0 -336 -1 -416 -2z"/>
<path d="M1149 8270 c0 -3 -3 -14 -5 -25 -2 -11 -7 -44 -11 -73 -7 -63 0 -70
58 -66 43 3 42 7 40 -101 -1 -67 15 -88 60 -75 47 14 57 13 68 -8 15 -28 2
-61 -30 -78 -16 -8 -29 -11 -29 -7 0 5 -8 13 -19 20 -20 13 -64 6 -55 -8 3 -5
0 -9 -5 -9 -6 0 -11 -6 -11 -14 0 -7 -7 -19 -15 -26 -9 -7 -14 -19 -11 -27 3
-7 1 -13 -4 -13 -6 0 -9 -3 -9 -7 5 -28 -3 -43 -22 -43 -28 0 -48 -27 -49 -64
0 -21 11 -39 39 -65 21 -20 50 -60 65 -89 18 -35 42 -64 72 -85 36 -25 47 -41
62 -86 10 -32 30 -69 49 -87 17 -17 43 -51 58 -75 15 -24 41 -55 57 -67 16
-13 44 -57 63 -97 20 -41 46 -80 61 -90 15 -9 39 -45 55 -81 22 -49 41 -72 79
-101 36 -27 55 -50 67 -82 10 -25 34 -62 55 -83 21 -21 51 -64 68 -97 16 -33
48 -77 71 -98 23 -21 54 -60 70 -88 16 -27 44 -63 64 -78 19 -15 48 -54 64
-85 16 -31 43 -70 61 -87 18 -16 45 -55 61 -87 19 -38 42 -66 71 -85 28 -19
51 -46 68 -79 14 -28 41 -65 61 -83 52 -44 83 -121 75 -184 -9 -61 -34 -112
-76 -152 -18 -16 -42 -51 -55 -76 -13 -25 -35 -53 -49 -62 -46 -31 -85 -81
-107 -140 -14 -36 -34 -68 -55 -85 -18 -15 -43 -49 -54 -75 -15 -33 -36 -59
-70 -83 -47 -33 -56 -48 -81 -128 -6 -22 -28 -58 -49 -80 -21 -23 -47 -63 -59
-89 -12 -26 -37 -65 -55 -85 -19 -20 -47 -62 -63 -92 -21 -40 -42 -62 -72 -79
-35 -19 -48 -36 -71 -86 -15 -34 -43 -82 -62 -106 -18 -25 -41 -65 -51 -89
-12 -32 -32 -57 -71 -87 -43 -33 -57 -51 -71 -93 -9 -28 -35 -71 -56 -96 -30
-35 -39 -54 -39 -82 0 -48 -9 -60 -60 -86 -48 -24 -80 -73 -80 -123 0 -47 9
-63 36 -63 27 0 31 -20 14 -64 -6 -17 -15 -24 -24 -20 -9 3 -15 9 -14 12 1 4
-2 22 -6 40 -9 38 -34 42 -77 11 -34 -24 -39 -68 -12 -98 37 -40 44 -51 33
-51 -5 0 -10 -9 -10 -20 0 -11 7 -20 15 -20 25 0 75 29 75 44 0 10 20 12 94 8
132 -7 180 2 224 42 52 47 67 53 157 65 76 11 192 43 266 75 43 18 152 42 229
51 56 6 89 22 177 85 41 29 58 35 115 38 61 4 69 2 92 -21 44 -45 27 -118 -44
-189 -32 -33 -45 -57 -66 -127 -39 -129 -42 -135 -89 -174 -37 -31 -45 -45
-55 -93 -7 -31 -29 -89 -49 -128 -36 -67 -67 -151 -90 -241 -6 -22 -28 -59
-51 -84 -27 -29 -45 -62 -56 -100 -30 -107 -35 -118 -65 -147 -41 -39 -55 -68
-63 -134 -10 -76 -42 -160 -77 -201 -28 -33 -36 -51 -60 -148 -7 -29 -25 -58
-51 -85 -59 -60 -65 -72 -83 -171 -9 -49 -24 -101 -34 -115 -22 -31 -81 -163
-81 -182 0 -39 -25 -91 -65 -134 -43 -47 -65 -94 -65 -141 0 -29 -18 -75 -33
-88 -36 -28 -59 -77 -58 -123 0 -75 -10 -142 -24 -155 -7 -6 -27 -22 -44 -35
-29 -22 -46 -59 -70 -149 -8 -29 -24 -52 -57 -79 -25 -22 -52 -51 -60 -67 -14
-27 -17 -104 -4 -112 4 -2 29 16 56 39 39 35 52 54 62 94 11 43 22 56 76 100
42 33 71 67 86 97 14 28 38 56 61 72 37 24 46 42 84 150 2 7 22 24 45 38 22
14 56 50 76 80 22 36 48 62 74 75 42 21 52 35 87 119 13 31 37 66 57 83 19 15
42 48 52 73 11 30 34 60 71 91 29 25 63 65 75 88 11 22 44 64 73 91 33 32 55
63 60 84 4 18 29 57 56 87 26 29 57 71 69 93 11 22 32 48 46 58 38 27 73 66
96 109 11 22 30 50 43 64 13 14 40 52 60 85 21 33 62 85 91 116 29 31 56 69
60 85 3 16 28 52 54 79 26 28 55 65 65 84 9 18 35 53 57 77 22 24 54 70 71
102 20 37 49 73 77 94 25 18 53 52 64 73 10 22 33 56 51 77 18 20 43 58 55 85
11 26 45 73 74 103 29 30 67 75 83 100 17 25 41 54 53 65 13 11 33 43 45 70
13 28 37 64 55 80 18 17 52 59 75 95 23 36 55 76 70 90 15 14 42 55 61 91 20
42 48 79 74 99 24 19 53 57 70 90 16 32 42 69 58 81 16 13 48 51 72 84 24 33
55 74 71 90 15 17 41 60 57 96 16 36 42 76 58 88 16 12 40 41 55 63 15 22 50
60 77 84 37 33 55 58 67 95 10 28 29 65 44 82 15 18 40 53 56 79 16 26 49 59
73 74 52 33 72 59 72 94 0 34 -17 50 -52 50 -44 0 -184 -56 -236 -94 -35 -25
-74 -41 -150 -60 -57 -14 -129 -37 -160 -51 -76 -36 -159 -62 -218 -70 -118
-16 -160 -28 -208 -62 -36 -25 -76 -42 -150 -60 -79 -19 -112 -33 -151 -63
-32 -24 -66 -40 -95 -45 -103 -16 -257 -58 -300 -80 -64 -35 -95 -45 -182 -60
-50 -9 -105 -28 -156 -54 -81 -42 -124 -50 -154 -27 -23 17 -23 38 4 121 21
69 34 87 101 137 26 20 42 45 58 89 18 48 32 68 63 91 23 16 54 53 69 81 16
29 44 68 62 87 18 19 45 60 58 90 14 30 43 73 67 95 23 22 52 61 66 87 13 25
44 63 69 83 26 22 54 57 65 83 11 24 36 62 55 83 19 22 49 70 66 107 21 47 39
74 60 86 63 37 88 124 52 176 -9 13 -31 36 -48 51 -17 15 -44 53 -60 84 -17
32 -45 69 -63 83 -18 14 -42 42 -53 63 -10 21 -39 55 -63 75 -25 21 -58 63
-75 93 -16 31 -46 72 -66 91 -20 19 -48 56 -61 82 -13 26 -44 67 -69 90 -24
24 -51 60 -59 80 -9 20 -40 58 -70 83 -30 26 -64 66 -76 90 -12 24 -37 59 -56
79 -18 19 -47 63 -64 96 -21 42 -42 67 -70 85 -23 14 -56 50 -76 80 -19 30
-48 65 -65 77 -17 13 -44 49 -61 81 -18 32 -46 71 -64 85 -17 15 -46 52 -64
82 -18 30 -52 73 -76 94 -25 22 -54 55 -66 75 -11 20 -36 52 -53 71 -18 19
-49 61 -69 93 -19 31 -40 57 -45 57 -13 0 -61 51 -88 93 -13 21 -44 57 -67 80
-24 23 -56 68 -70 99 -15 31 -35 60 -46 63 -10 3 -44 35 -75 71 -45 51 -66 67
-101 76 -24 7 -45 16 -45 20 -1 4 -2 11 -4 16 -1 4 -5 24 -9 44 -8 37 -29 64
-56 70 -8 2 -18 8 -22 13 -4 6 -8 8 -9 5z m165 -532 c4 4 6 -6 3 -22 -2 -16
-11 -34 -20 -41 -9 -6 -14 -15 -10 -18 3 -4 -3 -7 -15 -7 -13 0 -22 6 -22 15
0 8 -5 15 -10 15 -6 0 -14 10 -19 22 -9 25 14 59 35 51 8 -3 14 1 14 8 1 9 8
6 19 -8 10 -12 22 -19 25 -15z m141 -126 c-2 -3 0 -11 6 -19 6 -7 8 -13 3 -13
-5 0 -3 -4 5 -9 11 -7 9 -15 -13 -43 -14 -19 -26 -43 -26 -52 0 -21 -19 -58
-34 -68 -6 -4 -23 -8 -38 -8 -25 0 -28 4 -28 33 0 18 6 41 13 52 8 11 19 43
26 70 7 28 19 60 27 73 14 21 16 21 40 6 13 -9 22 -19 19 -22z m-35 -4122 c8
-5 11 -10 7 -10 -5 0 1 -12 12 -26 12 -15 21 -37 21 -49 0 -19 -7 -24 -45 -29
-60 -9 -68 -3 -60 48 12 71 30 89 65 66z"/>
<path d="M886 7975 c4 -8 10 -12 15 -9 14 8 10 24 -6 24 -9 0 -12 -6 -9 -15z"/>
<path d="M4754 6985 c-19 -20 -24 -34 -22 -66 1 -22 5 -42 8 -44 16 -10 71
-15 66 -6 -4 5 -1 11 5 13 6 2 14 25 16 51 8 75 -26 99 -73 52z"/>
<path d="M4961 6985 c-2 -5 -5 -23 -7 -40 -3 -25 -2 -27 7 -12 5 10 8 28 6 40
-2 12 -5 18 -6 12z"/>
<path d="M4958 6704 c-11 -16 -6 -66 5 -55 5 5 7 21 5 37 -2 17 -6 24 -10 18z"/>
<path d="M4650 6233 c-36 -15 -43 -28 -28 -53 20 -32 106 -28 147 6 35 29 39
50 12 59 -27 8 -99 2 -131 -12z"/>
<path d="M4814 3752 c-20 -12 -54 -90 -54 -121 0 -16 -4 -33 -10 -36 -5 -3
-10 -11 -10 -16 0 -14 25 -5 26 9 1 7 2 16 3 20 1 8 51 32 94 46 22 7 23 53 1
84 -16 23 -31 27 -50 14z"/>
<path d="M4740 3195 c-19 -22 -2 -65 32 -84 34 -20 42 -12 42 47 1 45 0 47
-30 50 -19 2 -36 -3 -44 -13z"/>
<path d="M1025 3168 c-28 -16 -35 -29 -24 -50 10 -19 32 -15 62 10 22 19 22
29 -1 41 -11 6 -24 6 -37 -1z"/>
</g>
</svg>
